<svg height='100px' width='100px'  fill="#1b065e" xmlns="http://www.w3.org/2000/svg" data-name="Layer 1" viewBox="0 0 128 128" x="0px" y="0px"><title>Miscellaneous 38 solid</title><path d="M89,77.17c.85-1.16,1.71-2.32,2.54-3.5A34.35,34.35,0,0,0,97.71,58H107V72a2,2,0,0,0,4,0V58h5a2,2,0,0,0,2-2V42a2,2,0,0,0-4,0V54H98c0-.1,0-.21,0-.31C98,34.56,82.75,19,64,19S30,34.56,30,53.69c0,.11,0,.21,0,.31H15V42a2,2,0,0,0-4,0V56a2,2,0,0,0,2,2h4V72a2,2,0,0,0,4,0V58h9.37a36.59,36.59,0,0,0,5.29,12.92c1.12,1.75,2.3,3.48,3.56,5.31C43.83,83,48.61,89.94,49.63,97.47c.19,1.38.76,6,1,10.53H49a2,2,0,0,0,0,4H79a2,2,0,0,0,0-4H77.48A71.24,71.24,0,0,1,78.8,96.21C80.42,88.91,84.61,83.2,89,77.17ZM72.49,69.36l-.74-.74a18.91,18.91,0,0,1-1.75.72v1a4,4,0,0,1-4,4H62a4,4,0,0,1-4-4v-1a18.91,18.91,0,0,1-1.75-.72l-.74.74a4,4,0,0,1-5.65,0L47,66.53a4,4,0,0,1,0-5.66l.74-.74c-.27-.57-.51-1.15-.73-1.75H46a4,4,0,0,1-4-4v-4a4,4,0,0,1,4-4h1a18.74,18.74,0,0,1,.72-1.74L47,43.9a4,4,0,0,1,0-5.66l2.83-2.83a4,4,0,0,1,5.65,0l.74.74A17.87,17.87,0,0,1,58,35.43v-1a4,4,0,0,1,4-4h4a4,4,0,0,1,4,4v1a17.87,17.87,0,0,1,1.75.72l.73-.74a4,4,0,0,1,5.66,0L81,38.24a4,4,0,0,1,0,5.66l-.74.74A18.74,18.74,0,0,1,81,46.38h1a4,4,0,0,1,4,4v4a4,4,0,0,1-4,4H81c-.22.6-.46,1.18-.73,1.75l.74.74a4,4,0,0,1,0,5.66l-2.83,2.83A4,4,0,0,1,72.49,69.36Z"></path><path d="M77.54,55.89a2,2,0,0,1,1.94-1.51H82v-4H79.48a2,2,0,0,1-1.94-1.5A14.11,14.11,0,0,0,76,45.29a2,2,0,0,1,.31-2.43l1.78-1.79-2.83-2.83L73.53,40a2,2,0,0,1-2.43.3,13.66,13.66,0,0,0-3.6-1.48A2,2,0,0,1,66,36.91V34.38H62v2.53a2,2,0,0,1-1.5,1.94,13.66,13.66,0,0,0-3.6,1.48,2,2,0,0,1-2.43-.3l-1.78-1.79-2.83,2.83,1.78,1.79A2,2,0,0,1,52,45.29a14.11,14.11,0,0,0-1.49,3.59,2,2,0,0,1-1.94,1.5H46v4h2.52a2,2,0,0,1,1.94,1.51A14.11,14.11,0,0,0,52,59.48a2,2,0,0,1-.31,2.43L49.86,63.7l2.83,2.83,1.78-1.79a2,2,0,0,1,1.42-.58,2.07,2.07,0,0,1,1,.27,13.36,13.36,0,0,0,3.6,1.49A2,2,0,0,1,62,67.86v2.52h4V67.86a2,2,0,0,1,1.5-1.94,13.36,13.36,0,0,0,3.6-1.49,2,2,0,0,1,2.43.31l1.78,1.79,2.83-2.83-1.78-1.79A2,2,0,0,1,76,59.48,14.11,14.11,0,0,0,77.54,55.89ZM64,62.38a10,10,0,1,1,10-10A10,10,0,0,1,64,62.38Z"></path><path d="M76,116H52a2,2,0,0,0,0,4H76a2,2,0,0,0,0-4Z"></path><path d="M74,124H54a2,2,0,0,0,0,4H74a2,2,0,0,0,0-4Z"></path><path d="M124.3,13.6h-.68c-.14-.38-.29-.75-.46-1.12l.48-.48a3.68,3.68,0,0,0,1.08-2.62,3.64,3.64,0,0,0-1.08-2.61l-2.41-2.41a3.78,3.78,0,0,0-5.23,0l-.48.48c-.37-.17-.74-.32-1.12-.46V3.7A3.7,3.7,0,0,0,110.7,0h-3.4a3.7,3.7,0,0,0-3.7,3.7v.68c-.38.14-.75.29-1.12.46L102,4.36a3.78,3.78,0,0,0-5.23,0L94.36,6.77a3.64,3.64,0,0,0-1.08,2.61A3.68,3.68,0,0,0,94.36,12l.48.48c-.17.37-.32.74-.46,1.12H93.7A3.7,3.7,0,0,0,90,17.3v3.4a3.7,3.7,0,0,0,3.7,3.7h.68c.14.38.29.75.46,1.12l-.48.48a3.68,3.68,0,0,0-1.08,2.62,3.64,3.64,0,0,0,1.08,2.61l2.41,2.41a3.78,3.78,0,0,0,5.23,0l.48-.48c.37.17.74.32,1.12.46v.68a3.7,3.7,0,0,0,3.7,3.7h3.4a3.7,3.7,0,0,0,3.7-3.7v-.68c.38-.14.75-.29,1.12-.46l.48.48a3.78,3.78,0,0,0,5.23,0l2.41-2.41a3.64,3.64,0,0,0,1.08-2.61A3.68,3.68,0,0,0,123.64,26l-.48-.48c.17-.37.32-.74.46-1.12h.68a3.7,3.7,0,0,0,3.7-3.7V17.3A3.7,3.7,0,0,0,124.3,13.6ZM109,28a9,9,0,1,1,9-9A9,9,0,0,1,109,28Z"></path><path d="M124.3,91.6h-.68c-.14-.38-.29-.75-.46-1.12l.48-.48a3.68,3.68,0,0,0,1.08-2.62,3.64,3.64,0,0,0-1.08-2.61l-2.41-2.41a3.78,3.78,0,0,0-5.23,0l-.48.48c-.37-.17-.74-.32-1.12-.46V81.7a3.7,3.7,0,0,0-3.7-3.7h-3.4a3.7,3.7,0,0,0-3.7,3.7v.68c-.38.14-.75.29-1.12.46l-.48-.48a3.78,3.78,0,0,0-5.23,0l-2.41,2.41a3.64,3.64,0,0,0-1.08,2.61A3.68,3.68,0,0,0,94.36,90l.48.48c-.17.37-.32.74-.46,1.12H93.7A3.7,3.7,0,0,0,90,95.3v3.4a3.7,3.7,0,0,0,3.7,3.7h.68c.14.38.29.75.46,1.12l-.48.48a3.68,3.68,0,0,0-1.08,2.62,3.64,3.64,0,0,0,1.08,2.61l2.41,2.41a3.78,3.78,0,0,0,5.23,0l.48-.48c.37.17.74.32,1.12.46v.68a3.7,3.7,0,0,0,3.7,3.7h3.4a3.7,3.7,0,0,0,3.7-3.7v-.68c.38-.14.75-.29,1.12-.46l.48.48a3.78,3.78,0,0,0,5.23,0l2.41-2.41a3.64,3.64,0,0,0,1.08-2.61,3.68,3.68,0,0,0-1.08-2.62l-.48-.48c.17-.37.32-.74.46-1.12h.68a3.7,3.7,0,0,0,3.7-3.7V95.3A3.7,3.7,0,0,0,124.3,91.6ZM109,106a9,9,0,1,1,9-9A9,9,0,0,1,109,106Z"></path><path d="M34.3,91.6h-.68c-.14-.38-.29-.75-.46-1.12l.48-.48a3.68,3.68,0,0,0,1.08-2.62,3.64,3.64,0,0,0-1.08-2.61l-2.41-2.41a3.78,3.78,0,0,0-5.23,0l-.48.48c-.37-.17-.74-.32-1.12-.46V81.7A3.7,3.7,0,0,0,20.7,78H17.3a3.7,3.7,0,0,0-3.7,3.7v.68c-.38.14-.75.29-1.12.46L12,82.36a3.78,3.78,0,0,0-5.23,0L4.36,84.77a3.64,3.64,0,0,0-1.08,2.61A3.68,3.68,0,0,0,4.36,90l.48.48c-.17.37-.32.74-.46,1.12H3.7A3.7,3.7,0,0,0,0,95.3v3.4a3.7,3.7,0,0,0,3.7,3.7h.68c.14.38.29.75.46,1.12l-.48.48a3.68,3.68,0,0,0-1.08,2.62,3.64,3.64,0,0,0,1.08,2.61l2.41,2.41a3.78,3.78,0,0,0,5.23,0l.48-.48c.37.17.74.32,1.12.46v.68a3.7,3.7,0,0,0,3.7,3.7h3.4a3.7,3.7,0,0,0,3.7-3.7v-.68c.38-.14.75-.29,1.12-.46l.48.48a3.78,3.78,0,0,0,5.23,0l2.41-2.41a3.64,3.64,0,0,0,1.08-2.61A3.68,3.68,0,0,0,33.64,104l-.48-.48c.17-.37.32-.74.46-1.12h.68A3.7,3.7,0,0,0,38,98.7V95.3A3.7,3.7,0,0,0,34.3,91.6ZM19,106a9,9,0,1,1,9-9A9,9,0,0,1,19,106Z"></path><path d="M3.7,24.4h.68c.14.38.29.75.46,1.12L4.36,26a3.68,3.68,0,0,0-1.08,2.62,3.64,3.64,0,0,0,1.08,2.61l2.41,2.41a3.78,3.78,0,0,0,5.23,0l.48-.48c.37.17.74.32,1.12.46v.68A3.7,3.7,0,0,0,17.3,38h3.4a3.7,3.7,0,0,0,3.7-3.7v-.68c.38-.14.75-.29,1.12-.46l.48.48a3.78,3.78,0,0,0,5.23,0l2.41-2.41a3.64,3.64,0,0,0,1.08-2.61A3.68,3.68,0,0,0,33.64,26l-.48-.48c.17-.37.32-.74.46-1.12h.68A3.7,3.7,0,0,0,38,20.7V17.3a3.7,3.7,0,0,0-3.7-3.7h-.68c-.14-.38-.29-.75-.46-1.12l.48-.48a3.68,3.68,0,0,0,1.08-2.62,3.64,3.64,0,0,0-1.08-2.61L31.23,4.36a3.78,3.78,0,0,0-5.23,0l-.48.48c-.37-.17-.74-.32-1.12-.46V3.7A3.7,3.7,0,0,0,20.7,0H17.3a3.7,3.7,0,0,0-3.7,3.7v.68c-.38.14-.75.29-1.12.46L12,4.36a3.78,3.78,0,0,0-5.23,0L4.36,6.77A3.64,3.64,0,0,0,3.28,9.38,3.68,3.68,0,0,0,4.36,12l.48.48c-.17.37-.32.74-.46,1.12H3.7A3.7,3.7,0,0,0,0,17.3v3.4A3.7,3.7,0,0,0,3.7,24.4ZM19,10a9,9,0,1,1-9,9A9,9,0,0,1,19,10Z"></path></svg>