<svg height='100px' width='100px'  fill="#1b065e" xmlns="http://www.w3.org/2000/svg" xmlns:xlink="http://www.w3.org/1999/xlink" version="1.1" x="0px" y="0px" viewBox="0 0 100 100" enable-background="new 0 0 100 100" xml:space="preserve"><g><g><path d="M17.278,71.511H6.719l0.298-1.612c0.509-0.282,1.045-0.53,1.61-0.741c0.567-0.213,1.132-0.375,1.697-0.488l16.792-27.35    h3.094l4.791,27.35c0.538,0.114,1.068,0.283,1.591,0.509c0.522,0.227,0.967,0.466,1.335,0.72l-0.339,1.612H24.53l0.296-1.612    c0.594-0.282,1.223-0.53,1.887-0.741c0.664-0.213,1.293-0.375,1.887-0.488l-1.018-6.741h-9.371l-4.028,6.741    c0.592,0.085,1.186,0.234,1.78,0.445c0.594,0.213,1.13,0.474,1.612,0.784L17.278,71.511z M19.654,59.172h7.589l-1.188-8.098    v-3.647H25.97l-1.61,3.731L19.654,59.172z"></path><path d="M48.643,67.817c-0.032,0.027-0.061,0.063-0.093,0.089c-0.58,0.482-1.138,0.722-1.674,0.722c-0.65,0-1.13-0.298-1.442-0.89    c-0.311-0.594-0.466-1.542-0.466-2.841c0-1.498,0.162-2.997,0.488-4.495c0.323-1.498,0.797-2.848,1.42-4.05    c0.621-1.201,1.385-2.175,2.289-2.925c0.463-0.383,0.956-0.665,1.478-0.852l0.347-2.646c-1.632,0.098-3.136,0.473-4.495,1.165    c-1.585,0.807-2.934,1.924-4.05,3.35c-1.117,1.428-1.979,3.096-2.587,5.004c-0.608,1.908-0.911,3.965-0.911,6.169    c0,2.121,0.437,3.717,1.314,4.791c0.876,1.076,2.049,1.612,3.519,1.612c0.989,0,1.908-0.213,2.757-0.635    c0.645-0.323,1.235-0.743,1.798-1.213L48.643,67.817z"></path><g><g><path d="M72.928,35.531l-15,2.74L50.39,65.615l11.497-13.189c-0.552-1.626-0.22-3.491,1.053-4.814      c1.817-1.888,4.82-1.945,6.708-0.128c1.888,1.817,1.945,4.82,0.128,6.708c-1.273,1.323-3.124,1.726-4.77,1.236L52.266,67.422      l27.701-9.651l1.579-15L72.928,35.531z"></path></g></g><g><polygon points="85.417,42.375 73.969,32.433 82.207,20.899 84.649,22.642 77.887,32.108 85.573,38.288 94.452,31.132      96.404,33.408    "></polygon></g></g></g></svg>