<svg xmlns="http://www.w3.org/2000/svg" xmlns:xlink="http://www.w3.org/1999/xlink" width="100" height="100" viewBox="0 0 100 100"><g><g transform="translate(50 50) scale(0.69 0.69) rotate(0) translate(-50 -50)" style="fill:#5f5046"><svg fill="#5f5046" xmlns:dc="http://purl.org/dc/elements/1.1/" xmlns:cc="http://creativecommons.org/ns#" xmlns:rdf="http://www.w3.org/1999/02/22-rdf-syntax-ns#" xmlns:svg="http://www.w3.org/2000/svg" xmlns="http://www.w3.org/2000/svg" xmlns:sodipodi="http://sodipodi.sourceforge.net/DTD/sodipodi-0.dtd" xmlns:inkscape="http://www.inkscape.org/namespaces/inkscape" version="1.1" x="0px" y="0px" viewBox="0 0 100 100"><g transform="translate(0,-952.36218)"><path style="text-indent:0;text-transform:none;direction:ltr;block-progression:tb;baseline-shift:baseline;color:#000000;enable-background:accumulate;" d="M 18.8125,26 C 17.829332,26.092661 16.995742,27.012485 17,28 l 0,44 c 1.05e-4,1.047169 0.952831,1.999895 2,2 l 62,0 c 1.047169,-1.05e-4 1.999895,-0.952831 2,-2 l 0,-18 c 0.01494,-1.056625 -0.943269,-2.028484 -2,-2.028484 -1.056731,0 -2.014943,0.971859 -2,2.028484 l 0,16 -58,0 0,-37.34375 17.84375,16.65625 -7.25,7.25 c -0.768362,0.73073 -0.789358,2.102008 -0.04373,2.855921 0.745628,0.753913 2.117054,0.74807 2.85623,-0.01217 l 7.375,-7.375 6.84375,6.40625 c 0.734017,0.694784 2.015983,0.694784 2.75,0 l 6.84375,-6.40625 13.375,13.375 c 0.739176,0.760241 2.110602,0.766084 2.85623,0.01217 0.745628,-0.753913 0.724632,-2.125191 -0.04373,-2.855921 l -13.25,-13.25 L 79,32.65625 79,46 c -0.01494,1.056625 0.943269,2.028484 2,2.028484 1.056731,0 2.014943,-0.971859 2,-2.028484 l 0,-18 c -1.05e-4,-1.047169 -0.952831,-1.999895 -2,-2 -20.725155,0 -41.475602,0 -62.1875,0 z m 5.21875,4 51.9375,0 L 50,54.25 z M 27.75,60.96875 c -0.436739,0.0631 -0.850501,0.275568 -1.15625,0.59375 -0.345654,0.3456 -0.654405,0.6544 -1,1 -0.768362,0.73073 -0.789358,2.102008 -0.04373,2.855921 0.745628,0.753913 2.117054,0.74807 2.85623,-0.01217 0.345505,-0.3455 0.65453,-0.6545 1,-1 0.615143,-0.577741 0.79892,-1.565931 0.432611,-2.326195 C 29.472551,61.31979 28.585183,60.847697 27.75,60.96875 z" transform="translate(0,952.36218)" fill="#5f5046" fill-opacity="1" fill-rule="nonzero" stroke="none" marker="none" visibility="visible" display="inline" overflow="visible"></path></g></svg></g></g></svg>