<svg height='100px' width='100px'  fill="#1b065e" xmlns="http://www.w3.org/2000/svg" xmlns:xlink="http://www.w3.org/1999/xlink" version="1.1" x="0px" y="0px" viewBox="0 0 100 100" style="enable-background:new 0 0 100 100;" xml:space="preserve"><path d="M50,6c-20.2,0-36,8.8-36,20v48c0,11.2,15.8,20,36,20c20.2,0,36-8.8,36-20V26C86,14.8,70.2,6,50,6z M20,51.9  c6.1,5.5,17.1,9.1,30,9.1s23.9-3.6,30-9.1v9.8C76.5,68.1,64.2,73,50,73s-26.5-4.9-30-11.3V51.9z M80,45.7C76.5,52.1,64.2,57,50,57  s-26.5-4.9-30-11.3v-8.5c6.4,5.3,17.3,8.8,30,8.8c12.7,0,23.6-3.5,30-8.8V45.7z M50,12c14.2,0,30,5.7,30,14S64.2,40,50,40  s-30-5.7-30-14S35.8,12,50,12z M50,88c-14.2,0-30-5.8-30-14v-6.1c6.1,5.5,17.1,9.1,30,9.1s23.9-3.6,30-9.1V74C80,82.2,64.2,88,50,88  z"></path></svg>